<svg width="56" height="56" viewBox="0 0 56 56" fill="none" xmlns="http://www.w3.org/2000/svg">
<rect width="56" height="56" rx="5" fill="white"/>
<path d="M33.2148 27.5273L24.2109 18.543C24.0156 18.3477 23.7747 18.25 23.4883 18.25C23.2148 18.25 22.9805 18.3477 22.7852 18.543C22.5898 18.7383 22.4922 18.9792 22.4922 19.2656C22.4922 19.5391 22.5898 19.7734 22.7852 19.9688L31.0664 28.25L22.7852 36.5312C22.5898 36.7266 22.4922 36.9609 22.4922 37.2344C22.4922 37.5208 22.5898 37.7617 22.7852 37.957C22.9805 38.1523 23.2148 38.25 23.4883 38.25C23.7747 38.25 24.0156 38.1523 24.2109 37.957L33.2148 28.9727C33.4102 28.7773 33.5078 28.5365 33.5078 28.25C33.5078 27.9635 33.4102 27.7227 33.2148 27.5273Z" fill="#003072"/>
</svg>
