<svg width="174" height="89" viewBox="0 0 174 89" fill="none" xmlns="http://www.w3.org/2000/svg">
<mask id="path-1-outside-1_73_0" maskUnits="userSpaceOnUse" x="10.9629" y="0" width="71" height="89" fill="black">
<rect fill="white" x="10.9629" width="71" height="89"/>
<path d="M29.3185 10.4583C18.0137 22.5131 13.8459 37.408 12.9629 54.2788C13.254 56.8373 13.4481 60.1581 14.0497 63.406C15.9904 73.8538 21.7156 81.243 31.9579 84.7289C39.8034 87.3942 47.8429 87.5593 55.9018 86.0251C68.3032 83.6656 76.4979 76.4075 78.56 63.8673C81.9029 43.6659 76.9831 25.3289 63.0777 10.1282C52.9228 -0.960463 39.6481 -0.562364 29.3185 10.4583Z"/>
</mask>
<path d="M29.3185 10.4583C18.0137 22.5131 13.8459 37.408 12.9629 54.2788C13.254 56.8373 13.4481 60.1581 14.0497 63.406C15.9904 73.8538 21.7156 81.243 31.9579 84.7289C39.8034 87.3942 47.8429 87.5593 55.9018 86.0251C68.3032 83.6656 76.4979 76.4075 78.56 63.8673C81.9029 43.6659 76.9831 25.3289 63.0777 10.1282C52.9228 -0.960463 39.6481 -0.562364 29.3185 10.4583Z" fill="#003072"/>
<path d="M29.3185 10.4583C18.0137 22.5131 13.8459 37.408 12.9629 54.2788C13.254 56.8373 13.4481 60.1581 14.0497 63.406C15.9904 73.8538 21.7156 81.243 31.9579 84.7289C39.8034 87.3942 47.8429 87.5593 55.9018 86.0251C68.3032 83.6656 76.4979 76.4075 78.56 63.8673C81.9029 43.6659 76.9831 25.3289 63.0777 10.1282C52.9228 -0.960463 39.6481 -0.562364 29.3185 10.4583Z" stroke="white" stroke-width="3" mask="url(#path-1-outside-1_73_0)"/>
<mask id="path-2-outside-2_73_0" maskUnits="userSpaceOnUse" x="58.7358" y="3.16602" width="35" height="53" fill="black">
<rect fill="white" x="58.7358" y="3.16602" width="35" height="53"/>
<path d="M83.1137 53.8269C82.3374 35.2568 76.9227 18.5607 62.7358 5.16602C66.2777 5.28253 69.0433 6.66618 71.5711 8.47707C79.5767 14.201 84.7051 22.1388 88.5089 31.0282C90.5952 35.8831 92.0508 40.9273 91.4201 46.3212C90.8572 51.1275 88.014 53.7249 83.1137 53.8269Z"/>
</mask>
<path d="M83.1137 53.8269C82.3374 35.2568 76.9227 18.5607 62.7358 5.16602C66.2777 5.28253 69.0433 6.66618 71.5711 8.47707C79.5767 14.201 84.7051 22.1388 88.5089 31.0282C90.5952 35.8831 92.0508 40.9273 91.4201 46.3212C90.8572 51.1275 88.014 53.7249 83.1137 53.8269Z" fill="#003072"/>
<path d="M83.1137 53.8269C82.3374 35.2568 76.9227 18.5607 62.7358 5.16602C66.2777 5.28253 69.0433 6.66618 71.5711 8.47707C79.5767 14.201 84.7051 22.1388 88.5089 31.0282C90.5952 35.8831 92.0508 40.9273 91.4201 46.3212C90.8572 51.1275 88.014 53.7249 83.1137 53.8269Z" stroke="white" stroke-width="3" mask="url(#path-2-outside-2_73_0)"/>
<mask id="path-3-outside-3_73_0" maskUnits="userSpaceOnUse" x="0" y="3.16602" width="35" height="53" fill="black">
<rect fill="white" y="3.16602" width="35" height="53"/>
<path d="M10.4952 53.7977C6.12854 53.822 3.31446 51.5499 2.41202 47.5397C1.48531 43.4373 2.2422 39.4709 3.48913 35.6209C6.8369 25.2702 12.2855 16.2401 20.8685 9.35095C23.6486 7.11769 26.7392 5.40876 30.9215 5.16602C16.6813 18.5316 11.3734 35.2811 10.4952 53.7977Z"/>
</mask>
<path d="M10.4952 53.7977C6.12854 53.822 3.31446 51.5499 2.41202 47.5397C1.48531 43.4373 2.2422 39.4709 3.48913 35.6209C6.8369 25.2702 12.2855 16.2401 20.8685 9.35095C23.6486 7.11769 26.7392 5.40876 30.9215 5.16602C16.6813 18.5316 11.3734 35.2811 10.4952 53.7977Z" fill="#003072"/>
<path d="M10.4952 53.7977C6.12854 53.822 3.31446 51.5499 2.41202 47.5397C1.48531 43.4373 2.2422 39.4709 3.48913 35.6209C6.8369 25.2702 12.2855 16.2401 20.8685 9.35095C23.6486 7.11769 26.7392 5.40876 30.9215 5.16602C16.6813 18.5316 11.3734 35.2811 10.4952 53.7977Z" stroke="white" stroke-width="3" mask="url(#path-3-outside-3_73_0)"/>
<mask id="path-4-outside-4_73_0" maskUnits="userSpaceOnUse" x="112.623" y="26.7793" width="18" height="22" fill="black">
<rect fill="white" x="112.623" y="26.7793" width="18" height="22"/>
<path d="M127.55 30.1839C125.609 32.4657 123.518 34.7039 121.728 37.1556C119.938 39.6073 118.414 42.229 116.609 45.0351C115.086 40.6123 113.951 36.2671 115.081 31.6598C115.634 29.412 117.361 28.5527 119.511 28.8294C122.427 29.2129 125.323 29.8004 127.55 30.1839Z"/>
</mask>
<path d="M127.55 30.1839C125.609 32.4657 123.518 34.7039 121.728 37.1556C119.938 39.6073 118.414 42.229 116.609 45.0351C115.086 40.6123 113.951 36.2671 115.081 31.6598C115.634 29.412 117.361 28.5527 119.511 28.8294C122.427 29.2129 125.323 29.8004 127.55 30.1839Z" fill="#003072"/>
<path d="M127.55 30.1839C125.609 32.4657 123.518 34.7039 121.728 37.1556C119.938 39.6073 118.414 42.229 116.609 45.0351C115.086 40.6123 113.951 36.2671 115.081 31.6598C115.634 29.412 117.361 28.5527 119.511 28.8294C122.427 29.2129 125.323 29.8004 127.55 30.1839Z" stroke="white" stroke-width="3" mask="url(#path-4-outside-4_73_0)"/>
<mask id="path-5-outside-5_73_0" maskUnits="userSpaceOnUse" x="154.743" y="26.8477" width="20" height="23" fill="black">
<rect fill="white" x="154.743" y="26.8477" width="20" height="23"/>
<path d="M170.218 45.3605C167.583 39.2238 163.76 34.5291 158.743 30.2665C161.955 29.781 165.157 29.1402 168.389 28.8635C170.752 28.6644 171.756 30.3733 172.178 32.4901C172.843 35.8157 172.173 40.7095 170.218 45.3605Z"/>
</mask>
<path d="M170.218 45.3605C167.583 39.2238 163.76 34.5291 158.743 30.2665C161.955 29.781 165.157 29.1402 168.389 28.8635C170.752 28.6644 171.756 30.3733 172.178 32.4901C172.843 35.8157 172.173 40.7095 170.218 45.3605Z" fill="#003072"/>
<path d="M170.218 45.3605C167.583 39.2238 163.76 34.5291 158.743 30.2665C161.955 29.781 165.157 29.1402 168.389 28.8635C170.752 28.6644 171.756 30.3733 172.178 32.4901C172.843 35.8157 172.173 40.7095 170.218 45.3605Z" stroke="white" stroke-width="3" mask="url(#path-5-outside-5_73_0)"/>
<mask id="path-6-outside-6_73_0" maskUnits="userSpaceOnUse" x="111.044" y="26.1055" width="63" height="63" fill="black">
<rect fill="white" x="111.044" y="26.1055" width="63" height="63"/>
<path d="M130.927 84.3705C134.468 85.8664 138.269 86.6497 142.112 86.6759C158.443 86.7002 171.587 73.7472 171.621 57.6095C171.621 41.3212 158.599 28.1061 142.51 28.1061C138.667 28.08 134.856 28.8116 131.295 30.2592C127.734 31.7067 124.493 33.8419 121.757 36.5427C119.021 39.2436 116.843 42.4573 115.349 46.0003C113.854 49.5433 113.071 53.3462 113.045 57.192C113.018 61.0377 113.75 64.8509 115.196 68.4139C116.643 71.977 118.777 75.22 121.476 77.9578C124.175 80.6956 127.387 82.8747 130.927 84.3705Z"/>
</mask>
<path d="M130.927 84.3705C134.468 85.8664 138.269 86.6497 142.112 86.6759C158.443 86.7002 171.587 73.7472 171.621 57.6095C171.621 41.3212 158.599 28.1061 142.51 28.1061C138.667 28.08 134.856 28.8116 131.295 30.2592C127.734 31.7067 124.493 33.8419 121.757 36.5427C119.021 39.2436 116.843 42.4573 115.349 46.0003C113.854 49.5433 113.071 53.3462 113.045 57.192C113.018 61.0377 113.75 64.8509 115.196 68.4139C116.643 71.977 118.777 75.22 121.476 77.9578C124.175 80.6956 127.387 82.8747 130.927 84.3705Z" fill="#003072"/>
<path d="M130.927 84.3705C134.468 85.8664 138.269 86.6497 142.112 86.6759C158.443 86.7002 171.587 73.7472 171.621 57.6095C171.621 41.3212 158.599 28.1061 142.51 28.1061C138.667 28.08 134.856 28.8116 131.295 30.2592C127.734 31.7067 124.493 33.8419 121.757 36.5427C119.021 39.2436 116.843 42.4573 115.349 46.0003C113.854 49.5433 113.071 53.3462 113.045 57.192C113.018 61.0377 113.75 64.8509 115.196 68.4139C116.643 71.977 118.777 75.22 121.476 77.9578C124.175 80.6956 127.387 82.8747 130.927 84.3705Z" stroke="white" stroke-width="3" mask="url(#path-6-outside-6_73_0)"/>
<path d="M136.254 65.5392C135.768 66.4854 135.494 67.2717 135.02 67.8852C134.088 69.0957 134.355 70.1202 135.178 71.2068C136.697 73.1971 138.459 74.6817 141.072 75.0667C141.622 70.2768 142.141 65.5783 141.248 60.9026C141.02 59.7019 140.051 58.5664 139.207 57.6235C137.353 55.5483 137.035 52.5791 138.599 50.3473C139.334 49.2327 140.431 48.4555 141.675 48.1698C142.918 47.8841 144.216 48.1108 145.311 48.805C146.406 49.4991 147.218 50.61 147.585 51.9171C147.953 53.2243 147.85 54.6322 147.297 55.8615C146.973 56.5962 146.509 57.2498 145.936 57.7801C144.766 58.8446 144.016 60.3469 143.839 61.9827C143.426 64.9192 143.736 72.2215 144.429 74.9395C146.932 74.7959 150.122 72.3879 150.857 69.9832C150.951 69.4701 150.878 68.938 150.65 68.4757C150.228 67.5132 149.691 66.6126 149.089 65.4739H153.646C153.585 69.5101 152.063 72.6783 149.089 74.9362C145.264 77.8369 141.154 78.0653 137.095 75.5235C133.617 73.3472 131.846 69.9767 131.721 65.5522L136.254 65.5392Z" fill="white"/>
<path d="M137.202 41.7015C137.197 42.0604 137.121 42.4148 136.978 42.7444C136.836 43.074 136.63 43.3724 136.372 43.6225C136.115 43.8726 135.81 44.0696 135.476 44.2021C135.142 44.3347 134.785 44.4002 134.426 44.3949C133.701 44.3671 133.015 44.061 132.511 43.5403C132.007 43.0197 131.724 42.3249 131.721 41.6008C131.735 40.875 132.036 40.1842 132.559 39.6805C133.083 39.1767 133.785 38.9012 134.512 38.9145C135.239 38.9279 135.93 39.229 136.435 39.7517C136.939 40.2743 137.215 40.9757 137.202 41.7015Z" fill="white"/>
<path d="M36.6452 60.9937C35.8689 62.4016 35.4323 63.5717 34.6754 64.4844C33.1858 66.2856 33.6128 67.81 34.9277 69.4267C37.3536 72.3882 40.1677 74.5972 44.3403 75.1701C45.2185 68.0431 46.0481 61.052 44.6217 54.0949C44.2578 52.3083 42.71 50.6187 41.3612 49.2157C38.4016 46.1279 37.8921 41.71 40.3908 38.3892C41.5641 36.7308 43.3174 35.5743 45.3031 35.1492C47.2887 34.7241 49.3615 35.0615 51.1102 36.0943C52.8588 37.1272 54.1555 38.7801 54.743 40.725C55.3305 42.67 55.1659 44.7649 54.2817 46.594C53.7647 47.6872 53.0242 48.6597 52.1081 49.4487C50.2397 51.0326 49.043 53.2679 48.7603 55.7018C48.1005 60.0713 48.5953 70.9366 49.7016 74.9807C53.6995 74.7671 58.7939 71.1842 59.9681 67.6061C60.1179 66.8427 60.0015 66.051 59.6382 65.3631C58.9638 63.9309 58.105 62.591 57.1443 60.8966H64.4221C64.3251 66.9021 61.8943 71.6163 57.1443 74.9759C51.0358 79.2919 44.4713 79.6317 37.9892 75.8498C32.4338 72.6115 29.6052 67.5964 29.4062 61.0131L36.6452 60.9937Z" fill="white"/>
<path d="M38.6169 25.8363C38.61 26.3209 38.5077 26.7993 38.3159 27.2443C38.1242 27.6893 37.8467 28.0922 37.4993 28.4298C37.1519 28.7675 36.7415 29.0334 36.2914 29.2123C35.8413 29.3913 35.3604 29.4797 34.8762 29.4727C33.9 29.4351 32.976 29.0218 32.2971 28.3189C31.6181 27.616 31.2367 26.6779 31.2324 25.7004C31.2504 24.7205 31.6567 23.7879 32.3619 23.1078C33.0671 22.4277 34.0134 22.0557 34.9926 22.0737C35.9718 22.0918 36.9038 22.4983 37.5835 23.2039C38.2632 23.9095 38.6349 24.8564 38.6169 25.8363V25.8363Z" fill="white"/>
<path d="M58.8501 29.4872C58.3659 29.5014 57.8837 29.4198 57.4311 29.2469C56.9785 29.0741 56.5645 28.8136 56.2129 28.4802C55.8612 28.1468 55.5788 27.7472 55.382 27.3043C55.1851 26.8614 55.0776 26.384 55.0657 25.8994C55.044 25.4149 55.1185 24.9309 55.2849 24.4754C55.4512 24.0199 55.7062 23.6019 56.035 23.2455C56.3637 22.8892 56.7598 22.6016 57.2003 22.3993C57.6409 22.1971 58.1171 22.0842 58.6014 22.0672C59.0858 22.0502 59.5688 22.1294 60.0224 22.3003C60.476 22.4712 60.8912 22.7303 61.2441 23.0627C61.597 23.3951 61.8806 23.7942 62.0785 24.237C62.2763 24.6797 62.3845 25.1573 62.3968 25.6421C62.426 26.6199 62.071 27.5702 61.4079 28.2891C60.7448 29.0079 59.8265 29.4381 58.8501 29.4872V29.4872Z" fill="white"/>
<path d="M150.995 44.3941C150.633 44.4046 150.273 44.3443 149.935 44.2167C149.596 44.0891 149.287 43.8967 149.024 43.6506C148.762 43.4044 148.551 43.1094 148.404 42.7824C148.257 42.4554 148.176 42.1029 148.167 41.7451C148.151 41.3874 148.207 41.0301 148.331 40.6938C148.455 40.3574 148.646 40.0488 148.891 39.7857C149.137 39.5226 149.433 39.3103 149.762 39.161C150.091 39.0116 150.447 38.9283 150.809 38.9157C151.171 38.9032 151.532 38.9617 151.87 39.0878C152.209 39.214 152.52 39.4053 152.783 39.6507C153.047 39.8962 153.259 40.1908 153.407 40.5177C153.554 40.8446 153.635 41.1972 153.644 41.5552C153.666 42.2771 153.401 42.9787 152.906 43.5095C152.41 44.0402 151.724 44.3578 150.995 44.3941V44.3941Z" fill="white"/>
</svg>
