<svg width="8" height="11" viewBox="0 0 8 11" fill="none" xmlns="http://www.w3.org/2000/svg">
<path d="M4 0.625C3.55078 0.625 3.1276 0.709635 2.73047 0.878906C2.32682 1.05469 1.97526 1.29232 1.67578 1.5918C1.38281 1.88477 1.15169 2.22982 0.982422 2.62695C0.806641 3.02409 0.71875 3.44727 0.71875 3.89648C0.71875 4.33268 0.875 4.91536 1.1875 5.64453C1.5 6.36719 1.84505 7.08333 2.22266 7.79297C2.60677 8.5026 2.96159 9.12435 3.28711 9.6582C3.61914 10.1921 3.79818 10.4818 3.82422 10.5273C3.84375 10.5599 3.86979 10.5827 3.90234 10.5957C3.9349 10.6152 3.96745 10.625 4 10.625C4.03255 10.625 4.0651 10.6152 4.09766 10.5957C4.13021 10.5827 4.15625 10.5599 4.17578 10.5273C4.20182 10.4818 4.38086 10.1921 4.71289 9.6582C5.03841 9.12435 5.38997 8.5026 5.76758 7.79297C6.15169 7.08333 6.5 6.36719 6.8125 5.64453C7.125 4.91536 7.28125 4.33268 7.28125 3.89648C7.28125 3.44727 7.19336 3.02409 7.01758 2.62695C6.84831 2.22982 6.61393 1.88477 6.31445 1.5918C6.02148 1.29232 5.67318 1.05469 5.26953 0.878906C4.8724 0.709635 4.44922 0.625 4 0.625ZM4 10.0391C3.86328 9.81771 3.67122 9.4987 3.42383 9.08203C3.17643 8.65885 2.91602 8.19661 2.64258 7.69531C2.39518 7.23958 2.17708 6.81641 1.98828 6.42578C1.79948 6.03516 1.63997 5.68034 1.50977 5.36133C1.38607 5.04232 1.29167 4.75911 1.22656 4.51172C1.16146 4.27083 1.12891 4.06576 1.12891 3.89648C1.12891 3.50586 1.20378 3.13477 1.35352 2.7832C1.50326 2.43815 1.70833 2.13542 1.96875 1.875C2.22917 1.61458 2.53516 1.40951 2.88672 1.25977C3.23177 1.11003 3.60286 1.03516 4 1.03516C4.39714 1.03516 4.76823 1.11003 5.11328 1.25977C5.46484 1.40951 5.77083 1.61458 6.03125 1.875C6.29167 2.13542 6.49674 2.43815 6.64648 2.7832C6.79622 3.13477 6.87109 3.50586 6.87109 3.89648C6.87109 4.06576 6.83854 4.27083 6.77344 4.51172C6.70833 4.75911 6.61068 5.04232 6.48047 5.36133C6.35677 5.68034 6.20052 6.03516 6.01172 6.42578C5.82292 6.81641 5.60482 7.23958 5.35742 7.69531C5.08398 8.19661 4.82357 8.65885 4.57617 9.08203C4.32878 9.4987 4.13672 9.81771 4 10.0391ZM4 2.17773C3.57031 2.17773 3.20247 2.32747 2.89648 2.62695C2.59701 2.91992 2.44727 3.27148 2.44727 3.68164C2.44727 4.09831 2.59701 4.45638 2.89648 4.75586C3.20247 5.04883 3.57031 5.19531 4 5.19531C4.42969 5.19531 4.79427 5.04883 5.09375 4.75586C5.39974 4.45638 5.55273 4.09831 5.55273 3.68164C5.55273 3.27148 5.39974 2.91992 5.09375 2.62695C4.79427 2.32747 4.42969 2.17773 4 2.17773ZM4 4.78516C3.6875 4.78516 3.41732 4.67773 3.18945 4.46289C2.9681 4.24805 2.85742 3.98763 2.85742 3.68164C2.85742 3.38216 2.9681 3.125 3.18945 2.91016C3.41732 2.69531 3.6875 2.58789 4 2.58789C4.3125 2.58789 4.57943 2.69531 4.80078 2.91016C5.02865 3.125 5.14258 3.38216 5.14258 3.68164C5.14258 3.98763 5.02865 4.24805 4.80078 4.46289C4.57943 4.67773 4.3125 4.78516 4 4.78516Z" fill="white"/>
</svg>
