<svg width="10" height="11" viewBox="0 0 10 11" fill="none" xmlns="http://www.w3.org/2000/svg">
<path d="M9.38477 3.26172L7.44141 1.31836C7.13542 1.01237 6.76107 0.859375 6.31836 0.859375C5.88216 0.859375 5.51107 1.01237 5.20508 1.31836L0.615234 5.89844C0.309245 6.21094 0.15625 6.58854 0.15625 7.03125C0.15625 7.46745 0.309245 7.83854 0.615234 8.14453L2.55859 10.0879C2.70833 10.2376 2.88086 10.3516 3.07617 10.4297C3.27148 10.5078 3.47331 10.5469 3.68164 10.5469C3.88346 10.5469 4.08203 10.5078 4.27734 10.4297C4.47266 10.3516 4.64518 10.2376 4.79492 10.0879L8.17383 6.70898C8.2194 6.66341 8.24219 6.61133 8.24219 6.55273C8.24219 6.49414 8.2194 6.44206 8.17383 6.39648C8.13477 6.35742 8.08268 6.33789 8.01758 6.33789C7.95898 6.33789 7.91016 6.35742 7.87109 6.39648L5.04883 9.21875L1.91406 6.08398C1.86849 6.04492 1.81641 6.02539 1.75781 6.02539C1.69922 6.02539 1.64714 6.04492 1.60156 6.08398C1.5625 6.12956 1.54297 6.18164 1.54297 6.24023C1.54297 6.29883 1.5625 6.35091 1.60156 6.39648L4.73633 9.53125L4.49219 9.77539C4.38151 9.88607 4.25456 9.96745 4.11133 10.0195C3.97461 10.0781 3.82812 10.1074 3.67188 10.1074C3.52214 10.1074 3.37565 10.0781 3.23242 10.0195C3.0957 9.96745 2.97201 9.88607 2.86133 9.77539L0.927734 7.8418C0.817057 7.73112 0.732422 7.60742 0.673828 7.4707C0.615234 7.32747 0.585938 7.17773 0.585938 7.02148C0.585938 6.87174 0.615234 6.72852 0.673828 6.5918C0.732422 6.44857 0.817057 6.32161 0.927734 6.21094L5.07812 2.05078L8.79883 5.77148C8.80534 5.77799 8.80859 5.78125 8.80859 5.78125C8.80859 5.78125 8.81185 5.78451 8.81836 5.79102C8.83789 5.80404 8.85742 5.81706 8.87695 5.83008C8.90299 5.83659 8.92904 5.83984 8.95508 5.83984C8.98112 5.83984 9.00391 5.83659 9.02344 5.83008C9.04948 5.81706 9.07227 5.80404 9.0918 5.79102C9.0918 5.78451 9.0918 5.78125 9.0918 5.78125C9.09831 5.78125 9.10482 5.77799 9.11133 5.77148L9.38477 5.49805C9.69076 5.19206 9.84375 4.82096 9.84375 4.38477C9.84375 3.94206 9.69076 3.56771 9.38477 3.26172ZM9.07227 5.19531L8.95508 5.3125L5.39062 1.74805L5.50781 1.63086C5.61849 1.52018 5.74219 1.43555 5.87891 1.37695C6.02214 1.31836 6.16862 1.28906 6.31836 1.28906C6.47461 1.28906 6.62109 1.31836 6.75781 1.37695C6.90104 1.43555 7.02799 1.52018 7.13867 1.63086L9.07227 3.56445C9.18294 3.67513 9.26758 3.80208 9.32617 3.94531C9.38477 4.08203 9.41406 4.22526 9.41406 4.375C9.41406 4.53125 9.38477 4.68099 9.32617 4.82422C9.26758 4.96094 9.18294 5.08464 9.07227 5.19531ZM7.58789 2.90039C7.56185 2.90039 7.53255 2.9069 7.5 2.91992C7.47396 2.92643 7.45117 2.93945 7.43164 2.95898C7.41211 2.97852 7.39583 3.0013 7.38281 3.02734C7.3763 3.05339 7.37305 3.08268 7.37305 3.11523C7.37305 3.14128 7.3763 3.17057 7.38281 3.20312C7.39583 3.22917 7.41211 3.25195 7.43164 3.27148C7.45117 3.29102 7.47396 3.30729 7.5 3.32031C7.53255 3.32682 7.56185 3.33008 7.58789 3.33008C7.61393 3.33008 7.63997 3.32682 7.66602 3.32031C7.69857 3.30729 7.72461 3.29102 7.74414 3.27148C7.76367 3.25195 7.77669 3.22917 7.7832 3.20312C7.79622 3.17057 7.80273 3.14128 7.80273 3.11523C7.80273 3.08268 7.79622 3.05339 7.7832 3.02734C7.77669 3.0013 7.76367 2.97852 7.74414 2.95898C7.72461 2.93945 7.69857 2.92643 7.66602 2.91992C7.63997 2.9069 7.61393 2.90039 7.58789 2.90039ZM2.72461 8.84766C2.75065 8.84766 2.77669 8.84115 2.80273 8.82812C2.82878 8.8151 2.85156 8.79883 2.87109 8.7793C2.91667 8.73372 2.93945 8.68164 2.93945 8.62305C2.93945 8.56445 2.91667 8.51237 2.87109 8.4668L2.22656 7.83203C2.1875 7.78646 2.13542 7.76367 2.07031 7.76367C2.01172 7.76367 1.96289 7.78646 1.92383 7.83203C1.87826 7.87109 1.85547 7.92318 1.85547 7.98828C1.85547 8.04688 1.87826 8.0957 1.92383 8.13477L2.56836 8.7793C2.58789 8.79883 2.61068 8.8151 2.63672 8.82812C2.66276 8.84115 2.69206 8.84766 2.72461 8.84766Z" fill="white"/>
</svg>
