<svg width="12" height="21" viewBox="0 0 12 21" fill="none" xmlns="http://www.w3.org/2000/svg">
<path d="M0.785156 9.52734L9.78906 0.542969C9.98438 0.347656 10.2253 0.25 10.5117 0.25C10.7852 0.25 11.0195 0.347656 11.2148 0.542969C11.4102 0.738281 11.5078 0.979167 11.5078 1.26562C11.5078 1.53906 11.4102 1.77344 11.2148 1.96875L2.93359 10.25L11.2148 18.5312C11.4102 18.7266 11.5078 18.9609 11.5078 19.2344C11.5078 19.5208 11.4102 19.7617 11.2148 19.957C11.0195 20.1523 10.7852 20.25 10.5117 20.25C10.2253 20.25 9.98438 20.1523 9.78906 19.957L0.785156 10.9727C0.589844 10.7773 0.492188 10.5365 0.492188 10.25C0.492188 9.96354 0.589844 9.72266 0.785156 9.52734Z" fill="#CCCCCC"/>
</svg>
