<svg width="150" height="150" viewBox="0 0 150 150" fill="none" xmlns="http://www.w3.org/2000/svg">
<g clip-path="url(#clip0_60_0)">
<path d="M34.8027 41.2152C32.8363 38.4194 32.5925 24.8011 38.3862 25.3618C39.6783 22.3978 48.7386 24.4085 49.8518 29.7357C50.5669 33.1723 51.2414 38.9962 48.7305 41.7519C45.9108 44.8841 37.7931 45.3968 34.8027 41.2152Z" fill="#8F4517"/>
<path d="M38.3133 31.8266C40.0278 28.9587 42.9613 28.9987 44.6433 28.6703C46.3254 28.3419 46.5935 27.4046 46.5935 27.4046C47.7799 29.0068 49.0313 29.175 49.6651 29.1269C50.9327 32.8119 51.2496 44.6999 48.6169 47.5918C45.7972 50.708 37.5494 51.5972 34.5672 47.4396C33.3646 45.7573 33.0396 33.8212 34.0797 29.7438C34.486 32.0108 37.005 34.0135 38.3133 31.8266Z" fill="#7F3200"/>
<path d="M57.3357 74.0595C57.8447 74.4559 58.267 74.9499 58.577 75.5116C58.8871 76.0734 59.0784 76.6912 59.1396 77.3279C59.1884 78.0008 57.4332 77.3279 57.2382 77.0074C56.9108 76.088 56.8105 75.1049 56.9456 74.1396C57.0653 74.077 57.2006 74.0492 57.3357 74.0595Z" fill="#ED9558"/>
<path d="M103.385 88.8874C103.439 88.8875 103.491 88.8704 103.533 88.8385C103.576 88.8067 103.607 88.7619 103.621 88.7111C103.631 88.6806 103.634 88.6485 103.631 88.6167C103.627 88.5848 103.617 88.554 103.601 88.5262C103.585 88.4984 103.563 88.4741 103.537 88.4549C103.511 88.4358 103.482 88.4221 103.45 88.4148L57.2465 75.7016C56.8727 75.6295 55.0363 75.3091 54.3943 75.7898C54.3207 75.8391 54.2596 75.9045 54.216 75.9809C54.1722 76.0574 54.1471 76.1427 54.1424 76.2303C54.1328 76.3083 54.1434 76.3875 54.1733 76.4603C54.2031 76.5332 54.2512 76.5974 54.3131 76.6469C54.8981 77.1276 57.0596 76.5828 57.7097 76.4066C57.7419 76.3954 57.7721 76.3792 57.799 76.3585L103.32 88.8874H103.385ZM56.8321 76.1182C55.727 76.3665 54.7518 76.4386 54.6218 76.2704C54.6298 76.2312 54.6532 76.1966 54.6868 76.1743C55.3849 75.9728 56.1241 75.9535 56.8321 76.1182Z" fill="#FF7F1F"/>
<path d="M57.3358 74.0594C57.8701 74.3833 58.3781 74.7475 58.8553 75.1489C59.1169 75.5898 59.3424 76.0505 59.5297 76.5267C59.7329 76.9033 59.7979 77.0394 59.611 77.0314C59.4256 76.9868 59.2544 76.8977 59.1126 76.7718C58.9708 76.646 58.8628 76.4875 58.7984 76.3105C58.7171 76.1502 58.579 75.7978 58.4002 75.7016C58.0999 75.7161 57.8028 75.6342 57.5538 75.4681C57.3047 75.3019 57.117 75.0606 57.0188 74.7804C56.6694 73.7871 57.3358 74.0594 57.3358 74.0594Z" fill="#FFB476"/>
<path d="M57.5552 76.5268C57.5552 76.9353 57.5552 77.2397 57.3439 77.2397C57.1326 77.2397 57.1001 76.9113 57.1001 76.5027C57.1001 76.0942 57.222 75.8298 57.352 75.8218C57.482 75.8138 57.5552 76.1182 57.5552 76.5268Z" fill="#FFB476"/>
<path d="M58.0671 76.695C58.0671 77.1436 58.1078 77.4961 57.8396 77.4961C57.5715 77.4961 57.5796 77.1436 57.5715 76.695C57.5633 76.2464 57.6852 75.8939 57.8315 75.8939C57.9778 75.8939 58.059 76.2464 58.0671 76.695Z" fill="#FFB476"/>
<path d="M58.6196 76.8232C58.6196 77.2958 58.6196 77.6242 58.3596 77.6242C58.0996 77.6242 58.0996 77.2557 58.0915 76.8232C58.0833 76.3906 58.1971 75.958 58.3515 75.942C58.5059 75.9259 58.6115 76.3505 58.6196 76.8232Z" fill="#FFB476"/>
<path d="M59.1806 76.9513C59.2293 77.3759 59.2618 77.6723 58.9774 77.7043C58.693 77.7364 58.7255 77.424 58.6686 76.9994C58.6118 76.5748 58.6686 76.1983 58.7824 76.1983C58.8962 76.1983 59.1156 76.5267 59.1806 76.9513Z" fill="#FFB476"/>
<path d="M49.2996 44.5957C50.2178 45.1004 52.875 57.2928 53.8988 61.0258C54.9227 64.7589 58.0918 74.2356 58.0918 74.2356L56.5316 74.8845C56.5316 74.8845 52.9806 69.9979 52.0543 67.2742C51.4495 65.5289 50.9715 63.7433 50.6241 61.931C49.2839 58.2181 47.6539 54.6131 45.7486 51.1485L49.2996 44.5957Z" fill="#BF1F2D"/>
<path d="M35.0628 120.987C34.9783 121.823 35.0166 122.668 35.1766 123.494C35.461 124.632 36.8018 124.095 36.8018 124.8C36.8018 125.08 34.2502 125.08 33.9496 124.744C33.137 123.943 33.5677 120.474 34.2909 120.738L35.0628 120.987Z" fill="#2D313D"/>
<path d="M46.1793 122.469C46.758 123.149 47.5054 123.671 48.3489 123.983C49.8197 124.551 50.7135 124.423 50.6485 124.784C50.5835 125.144 45.0986 124.976 45.0986 124.535C45.2166 123.847 45.2791 123.151 45.2855 122.453C45.2286 121.467 46.1793 122.469 46.1793 122.469Z" fill="#2D313D"/>
<path d="M52.0217 69.9018C52.2654 78.3612 49.4133 84.5135 44.5052 95.7526C37.452 111.934 35.2093 121.227 35.2093 121.227L33.6816 120.474C33.6816 120.474 33.6003 109.812 35.8025 103.163C37.3057 98.6125 39.8085 96.057 40.0604 94.9996C40.873 91.7232 41.6287 70.831 41.6287 70.831L52.0217 69.9018Z" fill="#323749"/>
<path d="M33.5514 70.1662C33.4458 81.9901 36.2655 84.113 39.4833 96.3615C39.7596 98.1719 38.7682 102.257 39.0689 105.974C39.4671 110.781 44.757 122.509 44.757 122.509H46.6016C43.7088 100.775 43.4731 100.735 44.0338 76.3906L45.1552 75.99V70.5027L33.5514 70.1662Z" fill="#3D4359"/>
<path d="M33.9091 68.8604H51.786C51.907 69.1946 51.9887 69.5413 52.0298 69.8938C49.1122 70.6317 46.1008 70.9447 43.0913 70.8231C39.3372 70.751 35.8268 70.4225 33.5678 70.1582C33.6285 69.7137 33.7431 69.278 33.9091 68.8604Z" fill="#313547"/>
<path d="M33.8603 70.8551C33.8771 70.6293 33.9069 70.4046 33.9497 70.1822L41.458 70.3985C41.1005 76.695 40.8811 84.4574 41.2224 93.3334H38.6383C36.3468 85.5629 34.3966 82.2785 33.7628 75.7096C33.6884 74.0911 33.721 72.4695 33.8603 70.8551Z" fill="#323749"/>
<path d="M46.5123 59.0472C48.8119 62.612 51.0546 65.2636 51.7778 68.8604C46.6829 69.9018 40.6454 69.8137 33.9009 68.8604C35.1279 65.5039 37.9639 61.6026 40.0603 59.2475L40.1091 59.1994L40.166 59.1273L40.2147 59.0792C41.3036 57.1246 37.5738 54.9777 36.2412 51.1806C34.9085 47.3835 35.4286 45.3087 35.4286 45.3087C40.3691 43.1217 43.2701 42.2886 48.885 44.5557L49.0557 48.3288C49.0557 48.3288 50.1933 50.8762 50.0226 52.0377C49.852 53.1993 44.9115 56.9644 46.5123 59.0472Z" fill="#F7EEE2"/>
<path d="M39.5403 35.7438C39.5403 35.7438 40.881 40.7105 39.7353 44.1472L43.2782 44.756H45.4722C44.9234 43.0181 44.6896 41.1986 44.7815 39.3807C44.9115 37.2819 39.5403 35.7438 39.5403 35.7438Z" fill="#E08344"/>
<path d="M40.2961 58.7588C40.7024 57.5252 39.3616 56.1794 38.0209 54.3769C36.607 52.2541 35.1768 49.5705 35.9488 45.7253L39.7842 43.8908C39.7842 43.8908 42.4495 49.6826 42.547 53.5038C42.5957 55.4023 42.0026 61.0659 41.5069 69.5253C39.1991 69.4372 36.7857 69.2129 34.2667 68.8684C35.7131 64.4465 40.2474 61.1541 40.2961 58.7588Z" fill="#E2ADAC"/>
<path d="M48.8364 44.5957L48.617 48.2967C48.617 48.2967 49.9496 50.6999 49.6652 52.0538C49.3808 53.4076 48.04 54.457 47.2274 55.7467C46.4149 56.9323 45.846 58.15 46.5367 59.0472C46.9349 59.664 47.3493 60.2488 47.715 60.8256C49.0964 63.2528 51.1929 66.4571 51.6235 68.8604C49.8593 69.2025 48.0724 69.4194 46.2767 69.5093C46.2361 64.5986 45.6591 59.0952 45.5616 57.8696C45.4641 56.6439 45.4641 52.8308 45.4641 51.461C45.4641 50.0911 45.5616 43.5944 45.5616 43.5944L48.8364 44.5957Z" fill="#E2ADAC"/>
<path d="M47.0811 43.8668C46.9998 44.5797 46.5122 46.4302 43.6763 46.4302C41.4644 46.498 39.3043 45.7625 37.6063 44.3634C40.8404 43.1058 43.3838 42.7132 47.0811 43.8668Z" fill="#E08344"/>
<path d="M39.5402 35.7438C39.5402 35.7438 44.9114 37.2819 44.7814 39.3968C44.7188 40.5358 44.7897 41.6783 44.9927 42.8013C43.5525 44.1936 41.7681 45.1905 39.8165 45.6932C39.0209 45.3529 38.2771 44.9053 37.6062 44.3634C38.353 44.0581 39.1151 43.7907 39.8896 43.5624C40.7428 40.2058 39.5402 35.7438 39.5402 35.7438Z" fill="#D1652F"/>
<path d="M45.3667 41.1271C45.8786 41.0309 46.5693 40.0456 46.9919 39.5249C47.967 38.4194 48.8446 37.1217 47.9589 34.4621C47.9589 34.4621 49.4865 27.3565 43.6522 27.2524C37.8178 27.1482 37.3627 32.8599 38.9879 36.9935C39.4732 38.2576 40.3514 39.3381 41.4971 40.0805C42.6427 40.8229 43.9972 41.1892 45.3667 41.1271Z" fill="#FFB476"/>
<path d="M42.2623 27.3645C38.2644 28.3979 38.7032 40.6304 45.4639 41.103C45.4639 41.103 45.4232 41.103 45.3989 41.103C44.0341 41.1554 42.6874 40.7827 41.5496 40.0378C40.4119 39.293 39.5411 38.2138 39.0607 36.9534C37.5818 33.2204 37.8418 28.1656 42.2623 27.3645Z" fill="#ED9558"/>
<path d="M37.3301 36.2084C37.34 36.4493 37.4222 36.6818 37.5663 36.8766C37.7104 37.0714 37.9099 37.2196 38.1395 37.3025C38.3691 37.3854 38.6185 37.3992 38.8561 37.3422C39.0937 37.2853 39.3088 37.16 39.4742 36.9824C39.6395 36.8048 39.7477 36.5828 39.7849 36.3445C39.8221 36.1063 39.7868 35.8625 39.6834 35.644C39.5799 35.4256 39.413 35.2423 39.2039 35.1175C38.9947 34.9926 38.7526 34.9318 38.5083 34.9427C38.1821 34.9573 37.875 35.0986 37.6542 35.3358C37.4334 35.573 37.3168 35.8867 37.3301 36.2084Z" fill="#ED9558"/>
<path d="M38.5247 35.3753C38.6941 35.3674 38.8609 35.4185 38.996 35.5195C38.9265 35.5035 38.8542 35.5035 38.7847 35.5195C38.6421 35.5665 38.5193 35.6586 38.4352 35.7815C38.3512 35.9044 38.3106 36.0512 38.3199 36.1991C38.3292 36.3471 38.3877 36.4879 38.4864 36.5996C38.5852 36.7114 38.7186 36.7879 38.866 36.8173C38.9226 36.8255 38.98 36.8255 39.0366 36.8173C38.9145 36.9087 38.7672 36.9617 38.6141 36.9695C38.3986 36.978 38.1884 36.9017 38.03 36.7575C37.8715 36.6133 37.7776 36.4129 37.769 36.2004C37.7604 35.988 37.8377 35.7808 37.984 35.6246C38.1303 35.4684 38.3336 35.3758 38.5491 35.3673L38.5247 35.3753Z" fill="#E08344"/>
<path d="M45.8379 32.139C45.5276 32.4649 45.294 32.8543 45.1535 33.2793C45.0131 33.7044 44.9693 34.1547 45.0254 34.5983C45.103 34.9742 45.2833 35.3222 45.5468 35.6045C45.8102 35.8869 46.1469 36.0929 46.5205 36.2004C46.5205 36.2004 46.2849 37.2018 45.3666 37.2418C44.4484 37.2819 46.0411 36.2886 46.0411 36.2886C46.0411 36.2886 44.7653 35.5996 44.5947 34.6063C44.3915 33.2365 45.8379 32.139 45.8379 32.139Z" fill="#E08344"/>
<path d="M41.1738 28.0054C40.6497 28.2722 40.2049 28.6687 39.8829 29.156C39.561 29.6433 39.373 30.2046 39.3374 30.7851C39.0855 32.94 39.7274 35.1109 39.2236 35.2391C38.9717 35.2952 38.3298 34.8546 38.3298 34.8546C38.3298 34.8546 35.892 28.1416 39.955 27.2604L41.1738 28.0054Z" fill="#8F4517"/>
<path d="M43.1562 31.9307C43.1562 32.0588 42.6606 32.0588 41.7017 32.3072C40.7429 32.5555 40.1903 32.8679 40.1497 32.7397C40.109 32.6116 40.5722 32.1469 41.5961 31.8666C42.6199 31.5862 43.0994 31.6743 43.1562 31.9307Z" fill="#7F3500"/>
<path d="M48.6167 32.6997C48.1668 32.5884 47.7244 32.4493 47.2922 32.2831C46.6421 32.1149 45.992 31.9787 46.0002 31.8666C46.0083 31.7544 46.1708 31.6823 46.4715 31.6823C48.3079 31.8906 48.6167 32.5635 48.6167 32.6997Z" fill="#7F3500"/>
<path d="M43.205 38.2192C43.205 38.2592 43.0506 38.2192 43.0018 38.2192C42.9916 38.2156 42.9822 38.21 42.9742 38.2028C42.9662 38.1956 42.9597 38.1869 42.9552 38.1772C42.9507 38.1675 42.9481 38.157 42.9478 38.1463C42.9474 38.1356 42.9492 38.125 42.9531 38.115C42.9558 38.1042 42.9608 38.0941 42.9678 38.0853C42.9747 38.0766 42.9834 38.0693 42.9934 38.064C43.0033 38.0587 43.0142 38.0556 43.0255 38.0547C43.0368 38.0538 43.0481 38.0553 43.0587 38.0589C43.1075 38.091 43.2212 38.1711 43.205 38.2192Z" fill="#93271C"/>
<path d="M46.7722 38.0028C46.7722 38.0028 46.9347 38.0028 46.9672 37.9548C46.9826 37.9385 46.9912 37.917 46.9912 37.8947C46.9912 37.8724 46.9826 37.8509 46.9672 37.8346C46.9596 37.8261 46.9502 37.8193 46.9397 37.8146C46.9292 37.8099 46.9178 37.8075 46.9063 37.8075C46.8947 37.8075 46.8833 37.8099 46.8728 37.8146C46.8623 37.8193 46.8529 37.8261 46.8453 37.8346C46.8453 37.8346 46.7478 37.9628 46.7722 38.0028Z" fill="#93271C"/>
<path d="M43.0995 38.1791L46.8618 37.9548C46.6956 38.2904 46.4489 38.5811 46.143 38.8017C45.8372 39.0222 45.4815 39.1659 45.1066 39.2205C44.7125 39.215 44.3253 39.1178 43.9766 38.9368C43.6278 38.7558 43.3273 38.4962 43.0995 38.1791Z" fill="#9A6335"/>
<path d="M43.0995 38.1791L46.8618 37.9548C46.6956 38.2904 46.4489 38.5811 46.143 38.8017C45.8372 39.0222 45.4815 39.1659 45.1066 39.2205C44.7125 39.215 44.3253 39.1178 43.9766 38.9368C43.6278 38.7558 43.3273 38.4962 43.0995 38.1791Z" fill="#93271C"/>
<path d="M43.3757 38.2592L46.4229 38.075C46.2903 38.3538 46.084 38.5923 45.8257 38.7653C45.5673 38.9384 45.2665 39.0397 44.9547 39.0586C44.643 39.0774 44.3318 39.0131 44.0539 38.8725C43.7761 38.7318 43.5418 38.52 43.3757 38.2592Z" fill="#F7EEE2"/>
<path d="M43.3757 38.2592L46.4229 38.075L46.2685 38.3153C45.8349 38.182 45.3754 38.1518 44.9277 38.2272C44.4563 38.2454 43.9893 38.3234 43.5382 38.4595L43.3757 38.2592Z" fill="#D5B698"/>
<path d="M46.5933 27.4046C46.5933 27.4046 46.8696 28.502 45.1957 29.0548C43.5218 29.6075 39.9464 29.992 38.9469 33.2925C38.9469 33.2925 37.663 29.8238 39.7595 27.9012C41.0352 26.7557 43.3836 25.8104 46.5933 27.4046Z" fill="#8F4517"/>
<path d="M37.7442 32.4754C38.0449 32.2511 38.8656 30.9694 39.3694 30.4887C41.0677 28.9587 43.2536 28.8866 44.6187 28.6543C46.2926 28.3258 46.5689 27.3885 46.5689 27.3885C46.5689 27.3885 46.8452 28.486 45.1713 29.0388C43.6517 29.5354 40.572 29.9119 39.2638 32.4514C39.3206 33.9254 39.5644 35.119 39.1988 35.2151C38.8331 35.3112 38.3049 34.8306 38.3049 34.8306C37.9417 34.5686 37.6855 34.1872 37.5827 33.7552C37.4798 33.3233 37.5371 32.8693 37.7442 32.4754Z" fill="#7F3200"/>
<path d="M39.1747 43.6905C39.1747 43.6905 41.7262 49.7386 42.035 53.0631C42.3437 56.3876 39.8897 71.4078 40.7104 92.8767H36.2087C36.2087 92.8767 32.4789 79.8111 33.3484 70.3985C33.8603 64.855 39.8491 60.9297 39.7841 58.206C39.6866 55.2821 34.096 52.1579 35.4368 45.2766L39.1747 43.6905Z" fill="#D0333B"/>
<path d="M46.025 43.5864L49.2753 44.5957L49.0397 48.2967C49.0397 48.2967 50.3804 50.6999 50.0879 52.0538C49.6816 53.9683 46.8376 55.5865 46.8376 58.0058C46.8376 59.6079 51.9325 65.8644 52.1356 69.4933C52.3388 73.1221 51.7293 81.5895 47.0244 92.8767H45.7974C45.7974 92.8767 46.7157 75.1409 46.7157 70.1021C46.7157 65.0633 46.1062 59.2154 46.0006 57.9016C45.895 56.5879 45.895 52.8629 45.895 51.493C45.895 50.1232 46.025 43.5864 46.025 43.5864Z" fill="#D0333B"/>
<path d="M45.5618 43.4742L47.0488 43.8027C46.9916 44.2699 46.8244 44.7175 46.5606 45.1097C46.2968 45.5019 45.9436 45.8279 45.5293 46.0617C45.5455 44.6839 45.5618 43.4742 45.5618 43.4742Z" fill="#D1652F"/>
<path d="M40.6616 46.0056C39.7248 45.7233 38.8429 45.2873 38.0532 44.7159L39.7678 43.9148C39.7678 43.9148 40.1741 44.7399 40.6616 46.0056Z" fill="#D1652F"/>
<path d="M37.7445 51.2367C37.7445 51.2367 40.9136 55.8669 40.808 58.1901C40.7023 60.5132 36.5175 65.8484 35.6968 70.791C34.9248 75.4453 36.3387 86.9248 37.9639 92.8607H36.2087C36.2087 92.8607 32.479 79.7952 33.3484 70.3825C33.8604 64.839 39.8491 60.9137 39.7841 58.1901C39.7272 56.5158 37.8664 54.7775 36.5338 52.3101C37.2407 51.6613 37.7445 51.2367 37.7445 51.2367Z" fill="#BF1F2D"/>
<path d="M39.1749 43.6905C39.1749 43.6905 42.0352 49.7867 42.0352 53.0631C42.0352 53.0631 38.411 48.4489 38.3541 48.0484C38.2973 47.6478 39.5324 46.7106 39.378 46.4462C39.2236 46.1818 36.7696 44.78 36.8184 44.5236C36.8671 44.2673 39.1749 43.6905 39.1749 43.6905Z" fill="#FF7878"/>
<path d="M47.9183 47.8721C48.0158 47.3194 46.6913 46.8147 46.6913 46.4142C46.6913 46.0136 48.3164 44.5476 48.2189 44.1391C48.1214 43.7305 45.9762 43.4341 45.9762 43.4341C45.9762 43.4341 45.8218 48.2406 45.9193 53.0471C45.9193 53.015 47.8045 48.4249 47.9183 47.8721Z" fill="#FF7878"/>
<path d="M43.2129 34.5742C43.2129 34.5742 43.1073 35.1991 41.9453 35.119C40.9377 35.0469 40.6289 34.5021 40.9214 34.5902C41.685 34.6264 42.4499 34.621 43.2129 34.5742Z" fill="#6D3A31"/>
<path d="M43.3271 34.2378L40.8894 33.9734L40.3287 33.9174C40.7269 33.2044 43.1565 32.8119 43.3271 34.2378Z" fill="#6D3A31"/>
<path d="M43.2133 34.2458C43.1565 33.8853 42.9452 33.4447 42.0514 33.5008C40.8081 33.5488 40.67 34.3018 40.8894 34.6383C41.3038 35.2151 43.4084 35.3593 43.2133 34.2458Z" fill="#F7EEE2"/>
<path d="M42.3299 35.0638C41.876 34.978 41.5786 34.5456 41.6657 34.098C41.7527 33.6505 42.1914 33.3573 42.6453 33.4432C43.0993 33.529 43.3967 33.9614 43.3096 34.409C43.2225 34.8565 42.7839 35.1497 42.3299 35.0638Z" fill="#6D3A31"/>
<path d="M45.838 34.414C45.838 34.414 45.838 35.0629 46.9918 34.9027C47.6988 34.8065 47.9101 34.2618 47.6175 34.3579C47.0266 34.4207 46.4317 34.4394 45.838 34.414Z" fill="#6D3A31"/>
<path d="M45.8055 34.0696L47.7476 33.7491L48.1782 33.661C47.7394 32.9641 45.9599 32.6837 45.8055 34.0696Z" fill="#6D3A31"/>
<path d="M45.8215 34.0936C45.8783 33.7331 46.1627 33.2925 47.0566 33.3326C47.1895 33.3232 47.3225 33.3495 47.4416 33.4085C47.5606 33.4676 47.6612 33.5572 47.7328 33.668C47.8044 33.7788 47.8443 33.9066 47.8483 34.038C47.8523 34.1693 47.8202 34.2992 47.7554 34.414C47.3979 35.0949 45.6427 35.159 45.8215 34.0936Z" fill="#F7EEE2"/>
<path d="M47.8774 34.0215C47.8774 34.1799 47.8298 34.3348 47.7405 34.4665C47.6512 34.5983 47.5243 34.7009 47.3758 34.7616C47.2274 34.8222 47.064 34.8381 46.9063 34.8072C46.7487 34.7763 46.6039 34.7 46.4903 34.5879C46.3766 34.4759 46.2993 34.3332 46.2679 34.1778C46.2365 34.0224 46.2526 33.8613 46.3141 33.7149C46.3756 33.5685 46.4798 33.4434 46.6134 33.3554C46.7471 33.2674 46.9042 33.2204 47.0649 33.2204C47.2804 33.2204 47.4871 33.3048 47.6394 33.455C47.7918 33.6053 47.8774 33.809 47.8774 34.0215Z" fill="#6D3A31"/>
<path d="M77.7401 90.113C72.9946 91.4829 67.5665 102.345 62.7316 103.539C61.5167 103.882 60.2418 103.968 58.991 103.79C57.7402 103.611 56.5419 103.174 55.4752 102.506C55.4752 102.506 57.9617 107.008 62.9267 105.838C70.5568 103.996 72.182 95.8007 77.1469 93.6458C79.991 92.4041 77.7401 90.113 77.7401 90.113Z" fill="#F7D6D0"/>
<path d="M62.9264 105.798C61.7843 106.082 60.5851 106.05 59.46 105.707C58.3349 105.363 57.3274 104.722 56.5476 103.852C58.6451 105.024 61.1276 105.332 63.4545 104.709C68.2894 103.515 73.6931 92.6925 78.463 91.2826C78.7311 92.0356 78.658 92.9889 77.1466 93.6858C72.1817 95.8007 70.5565 103.996 62.9264 105.798Z" fill="#E5BABA"/>
<path d="M112.194 101.152C112.194 101.152 108.407 106.407 107.887 107.953C107.367 109.499 105.661 119.689 105.766 120.578C105.872 121.467 106.815 125 106.815 125H105.189L103.524 120.578C103.524 120.578 103.369 107.064 103.296 106.407C103.223 105.75 105.092 99.758 105.092 99.758L112.194 101.152Z" fill="#E5BABA"/>
<path d="M88.4336 94.4148C87.0359 95.1037 86.4753 104.124 85.0776 106.046C83.68 107.969 77.4149 110.853 76.5779 111.654C75.741 112.455 82.1523 119.072 82.0142 121.956L79.7877 121.547C77.6993 117.766 72.6775 111.518 72.6775 111.518C72.6775 111.518 74.9772 108.362 76.7892 105.75C78.6013 103.139 80.1371 96.9382 80.1371 96.9382L88.4336 94.4148Z" fill="#E5BABA"/>
<path d="M77.6993 90.113C74.3514 91.7633 76.4073 97.8034 73.0675 104.813C71.9462 107.144 67.6313 110.581 67.6313 110.581L67.4201 125H69.5084C69.5084 125 70.321 113.673 71.1823 111.814C72.0437 109.956 80.3808 109.347 82.4692 105.838C84.5575 102.329 85.8333 97.6272 87.0847 97.0263C88.336 96.4255 77.6993 90.113 77.6993 90.113Z" fill="#F7D6D0"/>
<path d="M110.374 98.0437C110.374 98.0437 110.292 105.718 110.772 106.295C111.251 106.872 118.808 113.384 119.312 113.961C119.816 114.538 117.443 120.61 117.443 120.61L116.046 119.929C116.046 119.929 116.793 116.46 116.476 115.307C116.159 114.153 107.026 109.94 106.4 108.594C105.774 107.248 103.06 101.112 103.06 101.112L110.374 98.0437Z" fill="#F7D6D0"/>
<path d="M77.6995 90.113C81.8762 87.846 100.216 90.041 104.937 88.2626C108.708 86.8366 110.317 76.4787 112.438 75.1569C114.315 73.9873 117.313 74.8765 118.532 75.2851C119.125 75.4773 119.45 76.5428 120.157 76.8872C122.221 77.9607 124.22 78.169 124.74 78.7057C125.26 79.2424 124.147 81.4454 122.896 81.91C120.222 82.8553 116.866 82.0702 116.273 83.7284C114.648 88.2786 114.103 98.2921 112.86 100.391C111.397 102.866 103.174 104.893 100.371 104.396C95.5682 103.595 91.5541 99.4376 87.7512 99.726C84.3302 99.9903 75.7899 103.371 74.5385 102.93C74.5304 102.954 76.1312 90.9622 77.6995 90.113Z" fill="#F7D6D0"/>
<path d="M113.299 83.0395C111.495 83.8406 108.577 78.7297 109.333 77.1756C109.536 76.4947 113.095 74.5801 113.737 75.1649C114.664 76.0141 114.184 82.663 113.299 83.0395Z" fill="#42464B"/>
<path d="M125 78.6096C125 78.4253 123.472 78.217 123.472 78.217C123.424 78.8579 124.285 79.2665 124.447 79.8833C124.493 80.0891 124.476 80.3038 124.399 80.5001C124.755 79.9288 124.962 79.2791 125 78.6096V78.6096Z" fill="#42464B"/>
<path d="M117.622 77.2077C117.874 77.5842 118.264 77.7764 118.491 77.6242C118.719 77.472 118.71 77.0555 118.491 76.671C118.272 76.2864 117.857 76.1022 117.622 76.2464C117.386 76.3906 117.37 76.8232 117.622 77.2077Z" fill="#42464B"/>
<path d="M106.684 108.45C107.586 109.635 116.679 114.057 116.996 115.163C117.264 116.164 116.679 119.336 116.517 120.178L116.013 119.929C116.013 119.929 116.76 116.461 116.444 115.307C116.127 114.153 106.993 109.94 106.367 108.594C106.221 108.29 105.969 107.729 105.669 107.048C106.075 107.625 106.432 108.113 106.684 108.45Z" fill="#E5BABA"/>
<path d="M70.2563 111.374C71.1745 109.563 79.6661 109.018 82.0144 105.678C83.2371 103.99 84.2826 102.183 85.1348 100.287C84.3965 102.204 83.5052 104.06 82.4695 105.838C80.3811 109.347 72.0196 109.964 71.1827 111.814C70.3457 113.665 69.5087 125 69.5087 125H68.818C68.9318 123.134 69.0781 113.721 70.2563 111.374Z" fill="#E5BABA"/>
<path d="M116.265 83.7124C114.908 87.5015 114.306 95.0877 113.429 98.7246C114.558 93.1171 114.81 82.0862 115.054 81.8459C115.054 81.8459 120.742 82.3826 122.887 81.8939C120.214 82.8392 116.874 82.0542 116.265 83.7124Z" fill="#E5BABA"/>
<path d="M106.92 93.1251C106.404 93.1251 105.986 92.623 105.986 92.0036C105.986 91.3842 106.404 90.8821 106.92 90.8821C107.436 90.8821 107.854 91.3842 107.854 92.0036C107.854 92.623 107.436 93.1251 106.92 93.1251Z" fill="#42464B"/>
<path d="M104.279 90.2012C104.344 90.2012 104.408 90.2139 104.467 90.2385C104.527 90.2632 104.581 90.2993 104.627 90.3448C104.672 90.3903 104.708 90.4442 104.732 90.5034C104.756 90.5627 104.768 90.626 104.767 90.6898C104.767 90.7868 104.737 90.8816 104.682 90.9621C104.628 91.0427 104.55 91.1053 104.459 91.142C104.368 91.1788 104.267 91.1879 104.171 91.1684C104.075 91.1489 103.986 91.1016 103.917 91.0324C103.848 90.9633 103.802 90.8755 103.784 90.7802C103.766 90.6848 103.777 90.5864 103.815 90.4972C103.854 90.4081 103.919 90.3323 104.001 90.2796C104.084 90.2269 104.181 90.1996 104.279 90.2012Z" fill="#42464B"/>
<path d="M101.354 98.5644C101.526 98.5565 101.696 98.6 101.842 98.6893C101.989 98.7786 102.104 98.9095 102.174 99.0647C102.243 99.22 102.264 99.3923 102.232 99.5591C102.2 99.7259 102.118 99.8794 101.997 99.9994C101.875 100.119 101.719 100.2 101.55 100.231C101.381 100.263 101.206 100.243 101.049 100.174C100.891 100.105 100.758 99.9915 100.668 99.8472C100.577 99.7029 100.533 99.535 100.541 99.3655C100.541 99.153 100.627 98.9493 100.779 98.799C100.931 98.6488 101.138 98.5644 101.354 98.5644Z" fill="#42464B"/>
<path d="M97.1122 96.2333C97.3679 96.2973 97.5946 96.4436 97.7565 96.6489C97.9184 96.8541 98.0063 97.1068 98.0063 97.3668C98.0063 97.6268 97.9184 97.8795 97.7565 98.0848C97.5946 98.29 97.3679 98.4363 97.1122 98.5003C96.8566 98.4363 96.6299 98.29 96.468 98.0848C96.3061 97.8795 96.2181 97.6268 96.2181 97.3668C96.2181 97.1068 96.3061 96.8541 96.468 96.6489C96.6299 96.4436 96.8566 96.2973 97.1122 96.2333Z" fill="#42464B"/>
<path d="M93.7884 94.4229C93.5685 94.4229 93.3902 94.2471 93.3902 94.0303C93.3902 93.8136 93.5685 93.6378 93.7884 93.6378C94.0083 93.6378 94.1865 93.8136 94.1865 94.0303C94.1865 94.2471 94.0083 94.4229 93.7884 94.4229Z" fill="#42464B"/>
<path d="M96.2589 90.2012C96.4626 90.2198 96.6565 90.2963 96.8169 90.4215C96.9773 90.5466 97.0975 90.715 97.1627 90.9062C97.2279 91.0973 97.2354 91.303 97.1843 91.4983C97.1332 91.6936 97.0256 91.8701 96.8747 92.0063C96.7238 92.1424 96.5361 92.2325 96.3342 92.2655C96.1324 92.2985 95.9252 92.273 95.7378 92.1921C95.5504 92.1113 95.3908 91.9785 95.2785 91.8099C95.1662 91.6414 95.1059 91.4443 95.1051 91.2426C95.1113 91.0995 95.1462 90.959 95.2076 90.8291C95.269 90.6993 95.3557 90.5827 95.4629 90.486C95.5701 90.3892 95.6956 90.3143 95.8322 90.2654C95.9687 90.2166 96.1138 90.1947 96.2589 90.2012Z" fill="#42464B"/>
<path d="M87.8407 96.4255C87.9564 96.4318 88.0677 96.4713 88.1609 96.5393C88.2541 96.6072 88.3251 96.7006 88.365 96.8078C88.405 96.9151 88.4122 97.0315 88.3857 97.1428C88.3593 97.254 88.3004 97.3552 88.2163 97.4338C88.1322 97.5124 88.0266 97.565 87.9125 97.5851C87.7984 97.6052 87.6808 97.5919 87.5743 97.5469C87.4678 97.5018 87.377 97.427 87.3131 97.3316C87.2493 97.2363 87.2152 97.1246 87.215 97.0103C87.216 96.9311 87.2331 96.8529 87.2654 96.7803C87.2976 96.7077 87.3442 96.6422 87.4026 96.5876C87.4609 96.5331 87.5297 96.4907 87.605 96.4629C87.6802 96.435 87.7604 96.4223 87.8407 96.4255Z" fill="#42464B"/>
<path d="M86.2966 91.4348C86.5281 91.4473 86.7507 91.5264 86.9371 91.6623C87.1234 91.7982 87.2653 91.9849 87.3452 92.1994C87.4252 92.4139 87.4396 92.6468 87.3867 92.8693C87.3339 93.0918 87.216 93.2942 87.0478 93.4514C86.8796 93.6086 86.6684 93.7138 86.4402 93.754C86.212 93.7942 85.9769 93.7676 85.7638 93.6775C85.5508 93.5874 85.3692 93.4377 85.2415 93.247C85.1138 93.0563 85.0456 92.8329 85.0452 92.6044C85.0494 92.4466 85.0851 92.2911 85.1503 92.1469C85.2155 92.0027 85.3089 91.8726 85.4251 91.764C85.5413 91.6554 85.6781 91.5704 85.8276 91.5139C85.9772 91.4574 86.1365 91.4306 86.2966 91.4348Z" fill="#42464B"/>
<path d="M82.8104 91.6271C82.6387 91.6085 82.4761 91.5413 82.3423 91.4335C82.2086 91.3258 82.1093 91.1821 82.0567 91.0199C82.004 90.8578 82.0001 90.684 82.0455 90.5197C82.0909 90.3554 82.1836 90.2075 82.3124 90.0941C82.4412 89.9806 82.6006 89.9064 82.7713 89.8803C82.942 89.8543 83.1168 89.8776 83.2743 89.9474C83.4319 90.0172 83.5656 90.1306 83.6592 90.2737C83.7528 90.4168 83.8023 90.5836 83.8018 90.7539C83.7955 90.8757 83.7649 90.995 83.7115 91.105C83.6582 91.215 83.5833 91.3134 83.4911 91.3946C83.3988 91.4758 83.2912 91.5382 83.1744 91.5781C83.0575 91.618 82.9338 91.6347 82.8104 91.6271Z" fill="#42464B"/>
<path d="M82.7453 98.0437C82.9558 98.0358 83.1639 98.09 83.3428 98.1994C83.5218 98.3089 83.6635 98.4686 83.7497 98.6581C83.8359 98.8475 83.8627 99.0581 83.8267 99.2626C83.7906 99.4672 83.6934 99.6565 83.5474 99.8062C83.4014 99.9558 83.2134 100.059 83.0074 100.103C82.8015 100.146 82.587 100.128 82.3916 100.05C82.1962 99.973 82.0288 99.8397 81.9108 99.6677C81.7928 99.4956 81.7297 99.2928 81.7296 99.0851C81.7252 98.8145 81.8295 98.5532 82.0198 98.3581C82.2101 98.1631 82.4708 98.05 82.7453 98.0437Z" fill="#42464B"/>
<path d="M77.3259 94.9355C77.4885 94.9242 77.6508 94.9615 77.7917 95.0424C77.9326 95.1233 78.0456 95.2441 78.1159 95.3892C78.1862 95.5342 78.2106 95.6967 78.186 95.8556C78.1614 96.0145 78.0888 96.1624 77.9778 96.2801C77.8667 96.3979 77.7223 96.4799 77.5633 96.5156C77.4044 96.5514 77.2382 96.5391 77.0864 96.4805C76.9345 96.4219 76.8041 96.3196 76.7121 96.1869C76.62 96.0542 76.5705 95.8973 76.5701 95.7366C76.5696 95.5335 76.6474 95.3378 76.7877 95.1891C76.928 95.0403 77.1203 94.9497 77.3259 94.9355Z" fill="#42464B"/>
<path d="M78.1461 94.2226C78.0151 94.2292 77.8866 94.1852 77.788 94.1C77.6894 94.0147 77.6284 93.8949 77.6179 93.7659C77.6398 93.6435 77.7048 93.5326 77.8013 93.4527C77.8979 93.3727 78.02 93.3289 78.1461 93.3289C78.2722 93.3289 78.3943 93.3727 78.4909 93.4527C78.5875 93.5326 78.6524 93.6435 78.6743 93.7659C78.6639 93.8949 78.6029 94.0147 78.5043 94.1C78.4056 94.1852 78.2771 94.2292 78.1461 94.2226Z" fill="#42464B"/>
<path d="M78.8695 105.566C79.0303 105.566 79.1874 105.613 79.321 105.701C79.4546 105.789 79.5588 105.914 79.6203 106.06C79.6818 106.207 79.6979 106.368 79.6665 106.523C79.6352 106.679 79.5578 106.821 79.4441 106.933C79.3305 107.045 79.1857 107.122 79.0281 107.153C78.8704 107.184 78.7071 107.168 78.5586 107.107C78.4101 107.046 78.2832 106.944 78.1939 106.812C78.1046 106.68 78.057 106.525 78.057 106.367C78.057 106.154 78.1426 105.951 78.295 105.8C78.4473 105.65 78.654 105.566 78.8695 105.566Z" fill="#42464B"/>
<path d="M73.5146 107.376C73.3741 107.361 73.2412 107.306 73.1319 107.217C73.0227 107.129 72.9417 107.011 72.8989 106.878C72.8561 106.746 72.8532 106.603 72.8906 106.469C72.928 106.335 73.004 106.214 73.1096 106.121C73.2152 106.029 73.3457 105.968 73.4854 105.947C73.6251 105.926 73.768 105.945 73.8968 106.003C74.0257 106.06 74.1348 106.153 74.2112 106.27C74.2876 106.387 74.3278 106.524 74.3271 106.663C74.305 106.86 74.2098 107.042 74.0597 107.174C73.9097 107.305 73.7154 107.377 73.5146 107.376Z" fill="#42464B"/>
<path d="M69.3702 112.687C69.1926 112.702 69.0147 112.663 68.8598 112.577C68.7048 112.49 68.58 112.359 68.5016 112.201C68.4232 112.044 68.3949 111.866 68.4204 111.692C68.4459 111.519 68.5239 111.356 68.6444 111.227C68.7648 111.097 68.9221 111.007 69.0956 110.967C69.269 110.927 69.4507 110.94 69.6169 111.003C69.783 111.066 69.9259 111.178 70.0268 111.322C70.1278 111.467 70.1821 111.639 70.1827 111.814C70.1929 111.925 70.1795 112.037 70.1432 112.143C70.107 112.249 70.0487 112.346 69.9722 112.428C69.8957 112.51 69.8027 112.576 69.699 112.62C69.5953 112.665 69.4833 112.688 69.3702 112.687Z" fill="#42464B"/>
<path d="M68.6794 118.655C68.6501 118.307 68.7619 117.962 68.9903 117.695C69.2187 117.427 69.5452 117.26 69.8983 117.23C70.0115 117.232 70.1238 117.251 70.2314 117.286C70.1258 118.215 70.0283 119.168 69.9389 120.073C69.7616 120.062 69.5884 120.017 69.429 119.939C69.2697 119.862 69.1274 119.754 69.0103 119.622C68.8933 119.491 68.8038 119.337 68.747 119.171C68.6903 119.006 68.6673 118.83 68.6794 118.655Z" fill="#42464B"/>
<path d="M68.0212 122.669C68.0257 122.834 67.97 122.995 67.8641 123.123C67.7582 123.251 67.6092 123.337 67.4443 123.366V121.98C67.6078 122.008 67.7557 122.093 67.8614 122.22C67.9671 122.346 68.0238 122.505 68.0212 122.669Z" fill="#42464B"/>
<path d="M110.162 100.703C109.727 100.703 109.374 100.298 109.374 99.798C109.374 99.2981 109.727 98.8928 110.162 98.8928C110.597 98.8928 110.95 99.2981 110.95 99.798C110.95 100.298 110.597 100.703 110.162 100.703Z" fill="#42464B"/>
<path d="M111.999 96.6819C112.162 96.6574 112.33 96.6828 112.478 96.7547C112.627 96.8265 112.75 96.9414 112.83 97.084C112.911 97.2265 112.945 97.3899 112.929 97.5523C112.913 97.7147 112.847 97.8684 112.74 97.9927C112.632 98.1171 112.489 98.2062 112.329 98.2481C112.169 98.29 112 98.2828 111.844 98.2274C111.689 98.1719 111.554 98.0709 111.458 97.9379C111.362 97.8049 111.31 97.6462 111.308 97.483C111.299 97.3855 111.31 97.2873 111.34 97.194C111.37 97.1007 111.419 97.0142 111.483 96.9397C111.547 96.8651 111.626 96.8039 111.715 96.7596C111.803 96.7154 111.9 96.689 111.999 96.6819Z" fill="#42464B"/>
<path d="M112.194 92.276C112.101 92.289 112.005 92.2737 111.921 92.2321C111.837 92.1905 111.768 92.1245 111.722 92.0431C111.677 91.9616 111.658 91.8685 111.668 91.7762C111.678 91.6838 111.716 91.5966 111.778 91.5262C111.839 91.4558 111.921 91.4055 112.012 91.3821C112.103 91.3586 112.199 91.3631 112.288 91.3949C112.376 91.4268 112.453 91.4845 112.507 91.5603C112.561 91.6361 112.591 91.7265 112.592 91.8194C112.596 91.8751 112.59 91.9312 112.572 91.9844C112.554 92.0376 112.526 92.0868 112.489 92.1293C112.452 92.1717 112.407 92.2065 112.356 92.2317C112.306 92.2569 112.25 92.2719 112.194 92.276Z" fill="#42464B"/>
<path d="M109.561 85.2745C109.712 85.2616 109.864 85.2941 109.997 85.3677C110.129 85.4413 110.236 85.5527 110.303 85.6872C110.371 85.8217 110.395 85.9731 110.374 86.1215C110.352 86.27 110.286 86.4087 110.183 86.5193C110.081 86.63 109.947 86.7076 109.799 86.742C109.651 86.7763 109.495 86.7658 109.354 86.7117C109.212 86.6577 109.09 86.5628 109.003 86.4393C108.917 86.3158 108.871 86.1695 108.87 86.0195C108.866 85.9258 108.88 85.8323 108.912 85.7441C108.945 85.656 108.994 85.575 109.059 85.5058C109.123 85.4366 109.2 85.3805 109.286 85.3408C109.372 85.3012 109.466 85.2786 109.561 85.2745Z" fill="#42464B"/>
<path d="M113.51 84.7618C113.612 84.7385 113.719 84.7471 113.815 84.7864C113.912 84.8257 113.994 84.8937 114.05 84.9811C114.106 85.0684 114.133 85.1707 114.127 85.2737C114.121 85.3767 114.082 85.4754 114.017 85.556C113.952 85.6365 113.862 85.695 113.762 85.7233C113.661 85.7516 113.554 85.7483 113.455 85.7138C113.357 85.6794 113.271 85.6155 113.211 85.531C113.151 85.4465 113.119 85.3457 113.12 85.2425C113.108 85.128 113.143 85.0137 113.216 84.9239C113.288 84.8341 113.394 84.7759 113.51 84.7618Z" fill="#42464B"/>
<path d="M105.855 104.717C106.163 104.784 106.438 104.952 106.635 105.194C106.832 105.435 106.939 105.736 106.939 106.046C106.939 106.357 106.832 106.657 106.635 106.899C106.438 107.141 106.163 107.309 105.855 107.376H105.815L104.921 105.382C104.996 105.195 105.124 105.033 105.29 104.915C105.455 104.797 105.652 104.728 105.855 104.717Z" fill="#42464B"/>
<path d="M110.292 107.697C110.456 107.679 110.621 107.71 110.766 107.787C110.91 107.863 111.028 107.981 111.104 108.125C111.179 108.269 111.208 108.432 111.188 108.593C111.167 108.754 111.098 108.904 110.989 109.025C110.88 109.146 110.736 109.232 110.576 109.271C110.417 109.309 110.249 109.3 110.095 109.242C109.941 109.185 109.809 109.084 109.715 108.951C109.621 108.818 109.57 108.66 109.569 108.498C109.563 108.398 109.576 108.298 109.609 108.204C109.642 108.11 109.694 108.023 109.761 107.948C109.828 107.874 109.91 107.813 110.001 107.77C110.092 107.727 110.191 107.702 110.292 107.697Z" fill="#42464B"/>
<path d="M114.201 112.367C114.55 112.367 114.826 112.76 114.826 113.24C114.832 113.456 114.769 113.669 114.648 113.849C114.323 113.641 113.965 113.432 113.583 113.208C113.624 112.744 113.867 112.367 114.201 112.367Z" fill="#42464B"/>
<path d="M118.442 114.378C118.227 114.378 118.02 114.293 117.868 114.143C117.715 113.993 117.63 113.789 117.63 113.577C117.628 113.433 117.664 113.291 117.734 113.165C117.803 113.039 117.905 112.932 118.028 112.856C118.564 113.336 118.963 113.657 119.149 113.889C119.09 114.028 118.992 114.147 118.867 114.234C118.742 114.32 118.595 114.37 118.442 114.378Z" fill="#42464B"/>
<path d="M117.256 118.167C117.286 117.967 117.392 117.786 117.552 117.66C117.711 117.534 117.913 117.472 118.118 117.486C118.249 117.487 118.379 117.514 118.5 117.566C118.353 118.015 118.207 118.439 118.061 118.84C117.867 118.84 117.68 118.773 117.533 118.649C117.385 118.526 117.287 118.355 117.256 118.167Z" fill="#42464B"/>
<path d="M71.3693 96.8982C71.2101 96.8969 71.0535 96.8586 70.9122 96.7862C70.771 96.7137 70.6491 96.6094 70.5567 96.4816C71.1336 95.8007 71.7106 95.1198 72.2794 94.4709C72.4341 94.7215 72.5286 95.0038 72.5557 95.296C72.5557 96.1852 72.0437 96.8982 71.3693 96.8982Z" fill="#42464B"/>
<path d="M66.8757 101.544C66.7674 101.539 66.6621 101.507 66.5697 101.451C66.4774 101.395 66.4009 101.317 66.3475 101.224C66.705 100.888 67.0626 100.527 67.412 100.151C67.5078 100.308 67.5584 100.488 67.5583 100.671C67.5795 100.875 67.5205 101.08 67.3936 101.242C67.2666 101.404 67.0812 101.513 66.8757 101.544Z" fill="#42464B"/>
<path d="M63.7799 104.845C63.928 104.849 64.0722 104.893 64.1968 104.972C64.3214 105.051 64.4217 105.162 64.4868 105.293C63.9794 105.497 63.4581 105.666 62.9267 105.798C62.9285 105.565 63.0158 105.339 63.1726 105.164C63.3294 104.989 63.545 104.876 63.7799 104.845Z" fill="#42464B"/>
<path d="M60.2613 104.332C60.1316 104.319 60.0107 104.261 59.92 104.169C59.8293 104.077 59.7746 103.956 59.7657 103.828C60.0826 103.828 60.4239 103.828 60.7651 103.828C60.7559 103.957 60.7001 104.079 60.6078 104.172C60.5154 104.264 60.3925 104.321 60.2613 104.332Z" fill="#42464B"/>
<path d="M56.5152 103.819C56.1207 103.421 55.7719 102.98 55.4751 102.506C55.9442 102.837 56.455 103.106 56.9946 103.307C56.9547 103.42 56.8916 103.524 56.8091 103.612C56.7266 103.701 56.6266 103.771 56.5152 103.819Z" fill="#42464B"/>
<path d="M104.06 110.42C104.324 110.47 104.562 110.609 104.733 110.813C104.904 111.017 104.998 111.273 104.998 111.538C104.998 111.803 104.904 112.059 104.733 112.263C104.562 112.467 104.324 112.606 104.06 112.655C103.934 112.655 103.809 112.626 103.696 112.571C103.584 112.515 103.485 112.434 103.41 112.335C103.41 111.806 103.41 111.277 103.41 110.733C103.488 110.637 103.587 110.559 103.699 110.505C103.812 110.451 103.935 110.422 104.06 110.42Z" fill="#42464B"/>
<path d="M105.1 115.579C104.88 115.579 104.702 115.361 104.702 115.091C104.702 114.821 104.88 114.602 105.1 114.602C105.32 114.602 105.498 114.821 105.498 115.091C105.498 115.361 105.32 115.579 105.1 115.579Z" fill="#42464B"/>
<path d="M104.897 120.386C104.897 119.873 105.205 119.465 105.587 119.465C105.675 119.466 105.762 119.488 105.839 119.529C105.786 119.876 105.761 120.227 105.766 120.578C105.766 120.722 105.823 120.955 105.88 121.219C105.793 121.276 105.691 121.306 105.587 121.307C105.205 121.307 104.897 120.931 104.897 120.386Z" fill="#42464B"/>
<path d="M79.0647 119.08C78.8448 119.08 78.6666 118.861 78.6666 118.591C78.6666 118.322 78.8448 118.103 79.0647 118.103C79.2846 118.103 79.4629 118.322 79.4629 118.591C79.4629 118.861 79.2846 119.08 79.0647 119.08Z" fill="#42464B"/>
<path d="M77.732 115.868C77.3257 115.868 76.9925 115.411 76.9925 114.842C76.9815 114.653 77.0225 114.465 77.1112 114.297C77.1999 114.129 77.333 113.988 77.4963 113.889C77.7726 114.306 78.0814 114.754 78.4146 115.227C78.3825 115.39 78.2995 115.54 78.1772 115.655C78.0548 115.77 77.8992 115.844 77.732 115.868Z" fill="#42464B"/>
<path d="M74.725 112.655C74.9919 112.691 75.234 112.829 75.3995 113.038C75.565 113.248 75.6408 113.513 75.6107 113.777C75.6182 113.967 75.5785 114.156 75.4949 114.328C75.4114 114.5 75.2866 114.649 75.1313 114.762C74.7088 114.193 74.3187 113.673 73.9612 113.224C74.0199 113.067 74.123 112.93 74.2585 112.829C74.3939 112.728 74.5558 112.668 74.725 112.655Z" fill="#42464B"/>
<path d="M80.4949 108.281C80.7874 108.281 81.0231 108.578 81.0962 108.978C80.7061 109.211 80.2836 109.443 79.9179 109.659C79.8747 109.53 79.8528 109.395 79.8529 109.259C79.8529 108.722 80.1455 108.281 80.4949 108.281Z" fill="#42464B"/>
<path d="M84.2894 103.956C84.2499 103.602 84.3517 103.247 84.5731 102.966C84.7946 102.685 85.1183 102.5 85.4758 102.45C85.7228 102.456 85.9593 102.55 86.1421 102.714C85.9511 103.648 85.6792 104.565 85.3295 105.454C85.0058 105.363 84.7244 105.164 84.5344 104.89C84.3444 104.617 84.2577 104.286 84.2894 103.956Z" fill="#42464B"/>
<path d="M103.019 88.4868C103.019 88.4868 104.514 97.0664 103.743 104.324L102.06 104.524C102.06 104.524 103.109 95.6485 101.289 88.7191L103.019 88.4868Z" fill="#FF7F1F"/>
<path d="M103.019 88.4868C107.121 90.6221 110.796 93.4718 113.867 96.8982L114.176 95.0877C114.176 95.0877 109.983 90.105 104.685 88.0863L103.019 88.4868Z" fill="#FF7F1F"/>
<path d="M104.686 88.0863L101.256 88.7111C101.256 88.7111 103.67 89.6885 104.686 88.0863Z" fill="#FF7F1F"/>
<path d="M112.088 92.8928C112.824 93.561 113.521 94.2697 114.176 95.0156L113.867 96.8981C113.055 95.9609 112.161 95.1117 111.308 94.3347C111.598 93.8707 111.859 93.3891 112.088 92.8928Z" fill="#F76319"/>
<path d="M103.962 100.102C103.962 101.52 103.889 102.962 103.743 104.356L102.06 104.556C102.06 104.556 102.239 103.002 102.32 100.687C102.897 100.471 103.442 100.279 103.962 100.102Z" fill="#F76319"/>
<path d="M48.4546 71.1034L52.4687 70.6068C52.4687 70.6068 53.2813 72.2089 51.6561 72.5213C48.5439 73.0741 48.4546 71.1034 48.4546 71.1034Z" fill="#FF7878"/>
<path d="M38.6626 71.1034L33.3483 70.3985C33.3483 70.3985 32.4219 71.9125 35.4935 72.5214C38.5651 73.1302 38.6626 71.1034 38.6626 71.1034Z" fill="#FF7878"/>
<path d="M35.6968 70.8071C35.6086 71.375 35.5517 71.9473 35.5262 72.5214C34.0229 72.217 33.4785 71.7203 33.316 71.2557C33.316 70.9673 33.316 70.6869 33.381 70.3985L35.7456 70.7189C35.733 70.7501 35.7166 70.7797 35.6968 70.8071Z" fill="#ED6262"/>
<path d="M32.7471 75.269C32.9483 75.5866 33.1067 75.9286 33.2184 76.2864C33.3403 76.743 33.5272 77.6482 33.6328 77.9847C33.7384 78.3212 33.7709 78.4093 33.7384 78.4573C33.7059 78.5054 33.4134 78.6015 33.2509 78.1049C33.0884 77.6082 32.9015 76.8151 32.9015 76.8151L32.7471 75.269Z" fill="#ED9558"/>
<path d="M31.5528 75.5414C31.34 76.5404 31.223 77.5569 31.2034 78.5775C31.2034 79.9954 31.3172 80.1796 31.4634 80.1796C31.6097 80.1796 31.6097 79.8672 31.5772 79.3786C31.5918 79.1299 31.6299 78.8832 31.691 78.6416C31.7424 78.9405 31.7642 79.2437 31.756 79.5468C31.756 79.691 31.756 80.6603 31.9998 80.6523C32.2435 80.6443 32.1948 79.9473 32.1785 79.5708C32.1871 79.2552 32.2279 78.9411 32.3004 78.6336C32.3585 78.956 32.383 79.2835 32.3735 79.6109C32.3735 79.7551 32.3735 80.7885 32.6011 80.7885C32.8286 80.7885 32.8692 80.5321 32.8367 79.6509C32.8042 79.2992 32.8042 78.9453 32.8367 78.5935C33.0236 78.5935 32.9017 80.404 33.2267 80.3959C33.3893 80.3959 33.3974 79.9714 33.373 79.4427C33.373 79.0732 33.3513 78.7041 33.308 78.3372C33.1908 77.36 33.0226 76.3894 32.8042 75.4292C32.6188 75.2912 32.3879 75.2263 32.1565 75.247C31.9252 75.2677 31.71 75.3727 31.5528 75.5414Z" fill="#FFB476"/>
<path d="M32.8201 75.4373L33.0151 73.5627L31.5037 73.731L31.5687 75.7176L32.8201 75.4373Z" fill="#FFB476"/>
<path d="M35.5423 45.2767C35.5423 45.2767 33.2752 45.7733 32.2351 59.6961C32.2351 59.6961 31.5769 62.4919 31.2356 64.7589C30.7725 67.803 31.1463 74.7644 31.1463 74.7644L33.2752 74.9566C33.2752 74.9566 34.8191 67.8591 35.1929 65.3437C35.388 64.0299 35.8105 60.4571 35.8105 60.4571C36.3204 57.3718 37.2983 54.3796 38.7114 51.5812C38.5977 50.1392 35.5423 45.2767 35.5423 45.2767Z" fill="#D0333B"/>
<path d="M31.2357 64.7749C31.577 62.5079 32.2352 59.7121 32.2352 59.7121C32.9259 50.4837 34.0635 47.4796 34.8599 46.0938C34.2179 48.2006 33.4947 51.7654 32.9097 59.7121C32.9097 59.7121 32.2433 62.5079 31.9021 64.7749C31.447 67.819 32.1052 74.8845 32.1052 74.8845L31.1464 74.7804C31.1464 74.7804 30.7401 67.819 31.2357 64.7749Z" fill="#BF1F2D"/>
</g>
<defs>
<clipPath id="clip0_60_0">
<rect width="94" height="101" fill="white" transform="matrix(-1 0 0 1 125 24)"/>
</clipPath>
</defs>
</svg>
